<svg version="1.1" id="Layer_1" xmlns="http://www.w3.org/2000/svg" xmlns:xlink="http://www.w3.org/1999/xlink" x="0px" y="0px"
	 width="100%" viewBox="0 0 512 512" enable-background="new 0 0 512 512" xml:space="preserve">
<path fill="#000000" opacity="1.000000" stroke="none" 
	d="
M236.000000,513.000000 
	C166.311905,513.000000 96.623802,513.000000 26.569286,512.679565 
	C26.442177,507.027649 24.084875,502.383850 21.899353,497.830048 
	C20.483618,494.880188 17.495569,493.484802 14.006236,493.657837 
	C11.039078,493.804932 8.051294,494.058044 5.101464,493.851807 
	C3.089049,493.711182 2.028210,494.642700 1.000000,496.000000 
	C1.000000,331.096832 1.000000,166.193680 1.000000,1.000000 
	C83.354538,1.000000 165.709427,1.000000 248.238312,1.245252 
	C246.173218,2.100785 243.961838,2.851360 241.690811,3.300024 
	C213.618256,8.846026 192.264496,24.011723 177.540939,48.426350 
	C175.411240,51.957806 172.916946,52.774460 169.323288,52.187828 
	C160.867569,50.807495 152.409943,51.076271 143.937881,52.097900 
	C82.236366,59.538353 43.669552,127.290627 69.052834,184.273590 
	C83.159622,215.941971 107.613853,235.017868 141.935959,240.852112 
	C147.096542,241.729340 148.612274,243.701691 148.546432,248.912857 
	C148.249542,272.407410 148.343597,295.908203 148.444229,319.406128 
	C148.519943,337.088654 158.156616,346.606537 175.749527,346.612427 
	C210.247116,346.624023 244.744720,346.608459 279.242310,346.599976 
	C280.741638,346.599609 282.259308,346.700348 283.736847,346.509430 
	C288.136475,345.940979 291.404785,342.695892 291.284149,339.169861 
	C291.162506,335.614380 287.744904,332.626770 283.264282,332.419037 
	C279.771606,332.257141 276.266357,332.356537 272.766693,332.356049 
	C239.935638,332.351624 207.104568,332.375397 174.273575,332.330597 
	C166.453415,332.319916 162.987350,328.843964 162.780884,321.082123 
	C162.701126,318.084198 162.979889,315.059998 162.685532,312.088348 
	C162.194946,307.136078 163.988922,305.437683 169.129807,305.493683 
	C192.292130,305.746094 215.458710,305.607422 238.623764,305.609100 
	C275.287872,305.611786 311.952148,305.669037 348.615814,305.541718 
	C352.856262,305.527008 354.854767,306.643524 354.405304,311.157623 
	C354.126007,313.962677 354.382202,316.818848 354.355865,319.651703 
	C354.268280,329.062500 351.083832,332.291321 341.746765,332.336151 
	C331.914337,332.383331 322.081604,332.361572 312.248993,332.370728 
	C308.990936,332.373749 306.306122,333.583374 304.848053,336.562592 
	C303.775543,338.754059 303.808990,341.151917 305.343201,343.208160 
	C307.305634,345.838318 310.150818,346.605927 313.289795,346.605469 
	C322.455811,346.604034 331.621826,346.623718 340.787842,346.613007 
	C359.122589,346.591553 368.573944,337.198151 368.592773,318.942139 
	C368.617371,295.110474 368.665894,271.278564 368.559845,247.447388 
	C368.542816,243.623245 369.609009,242.085342 373.728821,241.393997 
	C428.349884,232.227692 462.854492,186.405182 455.699432,132.864319 
	C448.911316,82.069275 400.505035,45.153221 349.580261,52.049603 
	C345.731293,52.570843 343.573792,51.519318 341.513977,48.118679 
	C329.425415,28.161402 312.411591,14.220428 290.234772,6.533337 
	C282.632690,3.898242 274.593109,3.461276 267.000000,1.000000 
	C348.963470,1.000000 430.926971,1.000000 512.945190,1.000000 
	C512.945190,171.554138 512.945190,342.108307 512.945190,513.000000 
	C439.645569,513.000000 366.290649,513.000000 292.673065,512.702698 
	C307.644531,506.105621 313.217010,497.749451 311.779144,484.292053 
	C311.423981,480.968018 307.368042,477.740479 310.293427,474.665222 
	C312.714630,472.119934 316.484985,470.852722 319.670715,469.042419 
	C321.264038,468.136963 322.902924,467.311432 324.492737,466.400055 
	C328.393311,464.164093 332.437683,462.130066 336.117706,459.573608 
	C339.097290,457.503815 340.440613,454.402863 338.443176,450.841705 
	C336.529175,447.429291 333.384613,446.634857 329.835388,447.667786 
	C328.103577,448.171814 326.492432,449.154327 324.893921,450.041443 
	C317.173798,454.325989 309.498566,458.691986 301.754028,462.931610 
	C300.043457,463.868073 298.167389,465.773438 296.297241,464.930054 
	C290.035553,462.106232 283.919128,458.927887 278.537842,454.754272 
	C279.808014,452.025696 281.854340,451.460754 283.541748,450.483734 
	C309.785095,435.287933 336.015259,420.068695 362.328766,404.995087 
	C366.435913,402.642303 368.803864,399.871185 369.014313,394.847961 
	C369.474304,383.870728 375.364258,375.770721 383.971222,369.519897 
	C395.229553,361.343384 407.742676,357.198486 421.815918,357.579163 
	C441.863007,358.121399 452.324402,374.264221 443.839294,392.466675 
	C437.109070,406.904388 425.695007,416.573425 410.914856,422.148529 
	C401.673676,425.634277 392.355835,425.870941 383.398071,420.882904 
	C380.588257,419.318268 377.783722,418.943756 374.867004,420.633148 
	C367.082703,425.141907 359.206421,429.497589 351.515289,434.159271 
	C347.346375,436.686127 346.455048,440.402283 348.595062,443.922333 
	C350.673340,447.340820 354.278839,448.243408 358.573792,445.992859 
	C363.735504,443.288055 368.858490,440.467926 373.766449,437.334625 
	C377.157196,435.169922 380.173035,434.585602 383.963348,436.405029 
	C387.561859,438.132416 391.608490,438.614807 395.645508,438.657227 
	C422.736603,438.941986 451.600983,417.517242 459.251556,391.436218 
	C465.920959,368.699982 451.894653,347.484314 428.493134,344.223145 
	C412.259277,341.960907 397.358490,345.564423 383.331970,353.303284 
	C369.202362,361.098999 358.642883,372.045319 355.617035,388.580627 
	C355.001373,391.944885 353.539154,393.884338 350.744110,395.490875 
	C323.012573,411.430481 295.281464,427.372040 267.667999,443.514435 
	C263.934265,445.697144 261.120270,445.412689 257.584534,443.310883 
	C245.268600,435.989746 232.786316,428.948822 220.380692,421.778168 
	C206.100296,413.523834 191.836975,405.239899 177.558990,396.981384 
	C175.268921,395.656799 173.257141,394.379608 174.944611,391.158813 
	C181.457153,378.728790 174.909332,365.259888 163.562790,359.066132 
	C144.994995,348.930481 126.847717,338.024689 108.512543,327.462067 
	C107.362556,326.799591 106.172241,326.124420 104.913002,325.750122 
	C101.474854,324.728027 98.545425,325.692261 96.710609,328.783936 
	C94.826180,331.959198 95.606865,334.948914 98.375206,337.257202 
	C100.025421,338.633209 101.891052,339.780823 103.757149,340.863373 
	C121.485008,351.147522 139.258743,361.352814 156.963974,371.675629 
	C163.902512,375.721069 165.053940,380.048126 161.301163,387.051575 
	C159.413071,390.575165 157.234161,393.948761 155.457764,397.524780 
	C153.639481,401.185150 151.572266,401.722870 147.997482,399.543365 
	C139.037506,394.080444 129.877335,388.945282 120.786049,383.698425 
	C109.097130,376.952423 97.445175,370.140015 85.677147,363.534637 
	C81.215179,361.030151 77.089836,362.000427 75.134285,365.457428 
	C73.141754,368.979797 74.441757,372.696655 78.713951,375.587494 
	C79.678169,376.239960 80.699661,376.810150 81.709862,377.392029 
	C100.912682,388.453156 120.126427,399.495392 139.309402,410.590820 
	C141.285156,411.733582 143.564407,412.547943 145.090195,415.070374 
	C142.965347,418.797729 140.767380,422.687714 138.537064,426.559052 
	C132.706268,436.680054 128.867905,437.641785 118.857948,431.812836 
	C101.004295,421.416443 83.116409,411.078491 65.204468,400.782867 
	C60.556221,398.111084 56.253170,398.871735 54.207386,402.443573 
	C52.055973,406.199799 53.374023,410.003448 58.040096,412.821289 
	C63.458920,416.093719 68.922974,419.299042 74.459602,422.367096 
	C89.029175,430.440674 102.951218,439.687408 117.991905,446.888458 
	C128.939972,452.130066 138.792038,449.689117 146.386230,440.097839 
	C148.881210,436.946716 150.854935,436.687622 154.258118,438.687866 
	C173.650131,450.085785 193.122437,461.349854 212.685120,472.452118 
	C216.307968,474.508148 217.078384,476.340057 215.416061,480.323517 
	C211.405655,489.933838 215.019791,501.116211 223.304077,507.480927 
	C227.127991,510.418762 231.788513,511.123810 236.000000,513.000000 
z"/>
<path fill="#000000" opacity="1.000000" stroke="none" 
	d="
M239.468658,513.000000 
	C246.664047,510.766998 253.608826,507.001495 260.351257,502.846588 
	C262.623322,501.446503 264.407104,502.382355 266.312225,503.488129 
	C272.163666,506.884399 277.964661,510.386139 284.715454,512.777771 
	C269.979095,513.000000 254.958206,513.000000 239.468658,513.000000 
z"/>
<path fill="#000000" opacity="1.000000" stroke="none" 
	d="
M250.096298,279.965851 
	C250.083481,293.436157 249.836502,291.169617 239.306030,291.322998 
	C231.976044,291.429779 224.641617,291.237732 217.311874,291.352356 
	C213.916397,291.405457 212.508362,290.109161 212.604080,286.643555 
	C212.765015,280.816284 212.708801,274.979248 212.595718,269.149200 
	C212.491440,263.773193 209.784012,260.502747 205.633835,260.430176 
	C201.505096,260.358002 198.608002,263.604156 198.436279,268.959778 
	C198.254822,274.619751 198.242752,280.293243 198.410309,285.953339 
	C198.519531,289.643188 197.423538,291.484772 193.352402,291.391968 
	C184.692108,291.194641 176.023453,291.249420 167.360138,291.356415 
	C163.919327,291.398865 162.650497,289.968109 162.677902,286.573334 
	C162.785507,273.243805 162.774170,259.912750 162.706772,246.582748 
	C162.689957,243.255753 164.058853,241.920120 167.400635,241.582550 
	C176.048294,240.709030 184.418060,238.557632 192.459732,235.196274 
	C199.703827,232.168304 202.045807,229.036087 200.323502,224.584122 
	C198.612381,220.161072 194.501205,219.363922 187.373444,222.059006 
	C171.215912,228.168365 154.777954,229.500839 137.886383,225.400833 
	C99.032005,215.969910 71.930168,178.108643 75.712341,138.330872 
	C79.085320,102.856781 109.147377,71.707207 144.724716,66.486916 
	C151.057510,65.557709 157.338409,65.837318 163.649460,65.646255 
	C167.692703,65.523849 169.061157,66.978249 167.857498,71.087242 
	C165.606934,78.770035 164.306351,86.640083 164.367828,94.684082 
	C164.406738,99.775803 166.750275,103.097481 170.557175,103.550415 
	C174.362122,104.003105 177.630737,101.377144 178.116867,96.021217 
	C178.931168,87.049568 179.687820,78.105812 182.994873,69.654739 
	C194.881516,39.278751 217.001862,21.602108 249.239822,16.585308 
	C287.005096,10.708364 325.802856,35.234421 337.238586,73.216103 
	C339.012238,79.106903 340.451050,85.077606 340.424652,91.319168 
	C340.416321,93.290512 340.910339,95.268303 341.221008,97.235794 
	C341.897797,101.521942 344.442017,103.940018 348.756500,103.479904 
	C352.827301,103.045769 354.590515,100.237526 354.722778,96.154984 
	C355.000763,87.576035 353.644287,79.218513 351.364319,71.016312 
	C350.356659,67.391068 350.994049,65.858047 355.052948,65.607430 
	C394.456512,63.174446 430.916199,89.739426 440.269745,127.838081 
	C451.150146,172.156036 421.110565,218.100143 376.037048,226.380554 
	C360.351624,229.262100 345.244080,227.638428 330.437408,222.047165 
	C329.036377,221.518112 327.649567,220.873642 326.196106,220.576492 
	C322.381622,219.796661 319.022034,220.558777 317.685730,224.653397 
	C316.434357,228.487762 317.838776,231.533493 321.526306,233.347656 
	C330.432983,237.729492 339.913269,240.288376 349.701599,241.485687 
	C353.425415,241.941193 354.426361,243.494614 354.396393,246.919571 
	C354.282715,259.915771 354.245422,272.914734 354.403503,285.909943 
	C354.453735,290.038971 352.877411,291.488892 348.811462,291.404907 
	C339.484131,291.212189 330.148102,291.225769 320.819855,291.393005 
	C316.927002,291.462799 315.436462,289.970520 315.565735,286.107941 
	C315.749603,280.615753 315.697662,275.109253 315.549225,269.614197 
	C315.402405,264.177673 312.291321,260.429169 308.253052,260.463165 
	C304.045197,260.498566 301.432800,263.978607 301.375397,269.741669 
	C301.320587,275.240051 301.217682,280.742249 301.362946,286.236786 
	C301.455475,289.735809 300.354950,291.442596 296.541107,291.375366 
	C287.379395,291.213806 278.210754,291.213684 269.049225,291.383026 
	C265.046844,291.456970 263.763977,289.606873 263.810333,285.939514 
	C263.884064,280.109039 263.856628,274.274323 263.719513,268.444977 
	C263.606293,263.631012 260.566284,260.311096 256.664642,260.450012 
	C252.849030,260.585907 250.410843,263.529816 250.218811,268.481750 
	C250.076889,272.141968 250.133408,275.809845 250.096298,279.965851 
z"/>
<path fill="#000000" opacity="1.000000" stroke="none" 
	d="
M158.691803,419.705231 
	C160.532196,416.506256 162.364288,413.704346 163.828064,410.721710 
	C165.489594,407.336151 167.413330,407.163757 170.553848,408.995117 
	C192.849991,421.996826 215.249908,434.820404 237.574646,447.773346 
	C255.865112,458.385529 274.095520,469.101196 292.356995,479.763336 
	C296.109253,481.954071 298.511871,485.027008 297.826965,489.532471 
	C297.169861,493.855194 294.454681,496.696075 290.238739,497.943665 
	C286.672699,498.998962 283.730865,497.219482 280.847809,495.562469 
	C259.770508,483.448059 238.709213,471.305664 217.654358,459.152222 
	C198.762039,448.247070 179.897156,437.294373 160.985748,426.422485 
	C158.300995,424.879028 155.907196,423.485413 158.691803,419.705231 
z"/>
<path fill="#000000" opacity="1.000000" stroke="none" 
	d="
M241.705887,497.225891 
	C233.885513,499.495544 227.201767,494.760773 227.745621,487.720825 
	C228.066650,483.565308 230.012054,482.390472 233.580688,484.564880 
	C238.188095,487.372192 243.262253,489.488068 247.445938,492.973633 
	C246.104431,495.511169 243.891357,496.034760 241.705887,497.225891 
z"/>
</svg>